<svg xmlns="http://www.w3.org/2000/svg">
  <defs>
    <!-- astro icon -->
    <symbol id="astro" viewBox="0 0 85 107">
      <path d="M27.5894 91.1365C22.7555 86.7178 21.3444 77.4335 23.3583 70.7072C26.8503 74.948 31.6888 76.2914 36.7005 77.0497C44.4375 78.2199 52.0359 77.7822 59.2232 74.2459C60.0454 73.841 60.8052 73.3027 61.7036 72.7574C62.378 74.714 62.5535 76.6892 62.318 78.6996C61.7452 83.5957 59.3086 87.3778 55.4332 90.2448C53.8835 91.3916 52.2437 92.4167 50.6432 93.4979C45.7262 96.8213 44.3959 100.718 46.2435 106.386C46.2874 106.525 46.3267 106.663 46.426 107C43.9155 105.876 42.0817 104.24 40.6845 102.089C39.2087 99.8193 38.5066 97.3081 38.4696 94.5909C38.4511 93.2686 38.4511 91.9345 38.2733 90.6309C37.8391 87.4527 36.3471 86.0297 33.5364 85.9478C30.6518 85.8636 28.37 87.6469 27.7649 90.4554C27.7187 90.6707 27.6517 90.8837 27.5847 91.1341L27.5894 91.1365Z" fill="#F041FF"/>
      <path d="M0 69.5866C0 69.5866 14.3139 62.6137 28.6678 62.6137L39.4901 29.1204C39.8953 27.5007 41.0783 26.3999 42.4139 26.3999C43.7495 26.3999 44.9325 27.5007 45.3377 29.1204L56.1601 62.6137C73.1601 62.6137 84.8278 69.5866 84.8278 69.5866C84.8278 69.5866 60.5145 3.35233 60.467 3.21944C59.7692 1.2612 58.5911 0 57.0029 0H27.8274C26.2392 0 25.1087 1.2612 24.3634 3.21944C24.3108 3.34983 0 69.5866 0 69.5866Z" fill="currentColor"/>
    </symbol>

    <!-- javascript icon -->
    <symbol id="javascript" viewBox="0 0 630 630">
      <rect width="630" height="630" fill="#f7df1e"/>
      <path fill="black" d="m423.2 492.19c12.69 20.72 29.2 35.95 58.4 35.95 24.53 0 40.2-12.26 40.2-29.2 0-20.3-16.1-27.49-43.1-39.3l-14.8-6.35c-42.72-18.2-71.1-41-71.1-89.2 0-44.4 33.83-78.2 86.7-78.2 37.64 0 64.7 13.1 84.2 47.4l-46.1 29.6c-10.15-18.2-21.1-25.37-38.1-25.37-17.34 0-28.33 11-28.33 25.37 0 17.76 11 24.95 36.4 35.95l14.8 6.34c50.3 21.57 78.7 43.56 78.7 93 0 53.3-41.87 82.5-98.1 82.5-54.98 0-90.5-26.2-107.88-60.54zm-209.13 5.13c9.3 16.5 17.76 30.45 38.1 30.45 19.45 0 31.72-7.61 31.72-37.2v-201.3h59.2v202.1c0 61.3-35.94 89.2-88.4 89.2-47.4 0-74.85-24.53-88.81-54.075z"/>
    </symbol>

    <!-- typescript icon -->
    <symbol id="typescript" fill="none" viewBox="0 0 512 512">
      <rect fill="#3178c6" height="512" rx="50" width="512"/>
      <rect fill="#3178c6" height="512" rx="50" width="512"/>
      <path clip-rule="evenodd" fill="#fff" fill-rule="evenodd" d="m316.939 407.424v50.061c8.138 4.172 17.763 7.3 28.875 9.386s22.823 3.129 35.135 3.129c11.999 0 23.397-1.147 34.196-3.442 10.799-2.294 20.268-6.075 28.406-11.342 8.138-5.266 14.581-12.15 19.328-20.65s7.121-19.007 7.121-31.522c0-9.074-1.356-17.026-4.069-23.857s-6.625-12.906-11.738-18.225c-5.112-5.319-11.242-10.091-18.389-14.315s-15.207-8.213-24.18-11.967c-6.573-2.712-12.468-5.345-17.685-7.9-5.217-2.556-9.651-5.163-13.303-7.822-3.652-2.66-6.469-5.476-8.451-8.448-1.982-2.973-2.974-6.336-2.974-10.091 0-3.441.887-6.544 2.661-9.308s4.278-5.136 7.512-7.118c3.235-1.981 7.199-3.52 11.894-4.615 4.696-1.095 9.912-1.642 15.651-1.642 4.173 0 8.581.313 13.224.938 4.643.626 9.312 1.591 14.008 2.894 4.695 1.304 9.259 2.947 13.694 4.928 4.434 1.982 8.529 4.276 12.285 6.884v-46.776c-7.616-2.92-15.937-5.084-24.962-6.492s-19.381-2.112-31.066-2.112c-11.895 0-23.163 1.278-33.805 3.833s-20.006 6.544-28.093 11.967c-8.086 5.424-14.476 12.333-19.171 20.729-4.695 8.395-7.043 18.433-7.043 30.114 0 14.914 4.304 27.638 12.912 38.172 8.607 10.533 21.675 19.45 39.204 26.751 6.886 2.816 13.303 5.579 19.25 8.291s11.086 5.528 15.415 8.448c4.33 2.92 7.747 6.101 10.252 9.543 2.504 3.441 3.756 7.352 3.756 11.733 0 3.233-.783 6.231-2.348 8.995s-3.939 5.162-7.121 7.196-7.147 3.624-11.894 4.771c-4.748 1.148-10.303 1.721-16.668 1.721-10.851 0-21.597-1.903-32.24-5.71-10.642-3.806-20.502-9.516-29.579-17.13zm-84.159-123.342h64.22v-41.082h-179v41.082h63.906v182.918h50.874z"/>
    </symbol>

    <!-- tailwind icon -->
    <symbol id="tailwind" viewBox="0 0 47 40" fill="none">
      <path fill="#6366f1" d="M23.5 6.5C17.5 6.5 13.75 9.5 12.25 15.5C14.5 12.5 17.125 11.375 20.125 12.125C21.8367 12.5529 23.0601 13.7947 24.4142 15.1692C26.6202 17.4084 29.1734 20 34.75 20C40.75 20 44.5 17 46 11C43.75 14 41.125 15.125 38.125 14.375C36.4133 13.9471 35.1899 12.7053 33.8357 11.3308C31.6297 9.09158 29.0766 6.5 23.5 6.5ZM12.25 20C6.25 20 2.5 23 1 29C3.25 26 5.875 24.875 8.875 25.625C10.5867 26.0529 11.8101 27.2947 13.1642 28.6693C15.3702 30.9084 17.9234 33.5 23.5 33.5C29.5 33.5 33.25 30.5 34.75 24.5C32.5 27.5 29.875 28.625 26.875 27.875C25.1633 27.4471 23.9399 26.2053 22.5858 24.8307C20.3798 22.5916 17.8266 20 12.25 20Z"/>
    </symbol>

    <!-- svelte icon -->
    <symbol id="svelte" viewBox="0 0 98.1 118">
      <path fill="#FF3E00" d="M91.8,15.6C80.9-0.1,59.2-4.7,43.6,5.2L16.1,22.8C8.6,27.5,3.4,35.2,1.9,43.9c-1.3,7.3-0.2,14.8,3.3,21.3  c-2.4,3.6-4,7.6-4.7,11.8c-1.6,8.9,0.5,18.1,5.7,25.4c11,15.7,32.6,20.3,48.2,10.4l27.5-17.5c7.5-4.7,12.7-12.4,14.2-21.1  c1.3-7.3,0.2-14.8-3.3-21.3c2.4-3.6,4-7.6,4.7-11.8C99.2,32.1,97.1,22.9,91.8,15.6"/>
      <path fill="#FFFFFF" d="M40.9,103.9c-8.9,2.3-18.2-1.2-23.4-8.7c-3.2-4.4-4.4-9.9-3.5-15.3c0.2-0.9,0.4-1.7,0.6-2.6l0.5-1.6l1.4,1  c3.3,2.4,6.9,4.2,10.8,5.4l1,0.3l-0.1,1c-0.1,1.4,0.3,2.9,1.1,4.1c1.6,2.3,4.4,3.4,7.1,2.7c0.6-0.2,1.2-0.4,1.7-0.7L65.5,72  c1.4-0.9,2.3-2.2,2.6-3.8c0.3-1.6-0.1-3.3-1-4.6c-1.6-2.3-4.4-3.3-7.1-2.6c-0.6,0.2-1.2,0.4-1.7,0.7l-10.5,6.7  c-1.7,1.1-3.6,1.9-5.6,2.4c-8.9,2.3-18.2-1.2-23.4-8.7c-3.1-4.4-4.4-9.9-3.4-15.3c0.9-5.2,4.1-9.9,8.6-12.7l27.5-17.5  c1.7-1.1,3.6-1.9,5.6-2.5c8.9-2.3,18.2,1.2,23.4,8.7c3.2,4.4,4.4,9.9,3.5,15.3c-0.9,5.2-4.1,9.9-8.6,12.7l-27.5,17.5C44.8,102.5,42.9,103.3,40.9,103.9"/>
    </symbol>

    <!-- mistral icon -->
    <symbol id="mistral" viewBox="0 0 150 150">
      <rect fill="gold" x="22.54" y="23.64" width="20.98" height="24.4"/>
      <rect fill="gold" x="106.47" y="23.64" width="20.98" height="24.4"/>
      <rect fill="#ffaf00" x="22.54" y="44.62" width="41.97" height="22.35"/>
      <rect fill="#ffaf00" x="85.49" y="44.62" width="41.97" height="22.35"/>
      <rect fill="#fa500f" x="22.54" y="81.26" width="20.98" height="27.36"/>
      <rect fill="#fa500f" x="64.5" y="81.26" width="20.98" height="26.31"/>
      <rect fill="#fa500f" x="106.47" y="81.26" width="20.98" height="27.36"/>
      <path fill="#e10500" d="M1.56,107.57h62.95v20.98H1.56v-20.98Zm83.93,0h62.95v20.98h-62.95v-20.98Z"/>
      <path fill="#ff8205" d="M22.54,65.61H127.45v20.98H22.54v-20.98Z"/>
    </symbol>

    <!-- pdf-js icon -->
    <symbol id="pdf-js" viewBox="0 0 64 64">
      <path d="M 4.8364028,0.4891005 32.096378,4.5726641 59.163597,0.4891005 54.680408,57.805097 32.096378,63.510899 8.3116209,57.805097 z" fill="#e5e7e8" stroke="#cccccc"/>
      <path d="M 32.096378,10.745857 53.925414,6.8301117 51.016574,53.81906 32.096378,58.517955 z" fill="#ffffff"/>
      <rect width="34.027256" height="19.136194" x="3.7557135" y="22.431904" fill="#ff2600"/>
      <rect width="23.480518" height="19.136194" x="36.763767" y="22.431904" fill="#ff501a"/>
      <g transform="matrix(0.42778543,0,0,0.42778543,58.617711,9.6737064)">
        <path d="m -120.53125,34.59375 0,35.1875 6.53125,0 0,-5.9375 0,-5.96875 8.875,0 4.15625,-3.71875 0,-7.71875 0,-7.71875 -4.21875,-4.125 -15.34375,0 z m 6.53125,6.8125 6.21875,0 0,10.21875 -6.21875,0 0,-10.21875 z" fill="#ffffff"/>
        <path d="m -98.125,34.59375 0,35.1875 16.125,0 3.75,-3.625 0,-27.96875 -3.96875,-3.59375 -15.90625,0 z m 6.8125,6.8125 6.8125,0 0,21.5625 -6.8125,0 0,-21.5625 z" fill="#ffffff"/>
        <path d="m -74.856072,34.602929 c 5.485697,0 10.971394,0 16.457091,0 0,2.269943 0,4.539887 0,6.80983 -3.404915,0 -6.809831,0 -10.214746,0 0,2.472069 0,4.944138 0,7.416206 2.93201,0.110496 5.864021,-0.110494 8.796031,0 l 0,3.366025 0,3.375914 c -2.93201,0.110495 -5.864021,-0.110495 -8.796031,0 l 0,7.146446 0,7.069702 c -2.080782,0 -4.161563,0 -6.242345,0 0,-11.728041 0,-23.456082 0,-35.184123 z" fill="#ffffff"/>
        <path d="m -42.8813,67.942723 -2.181762,-1.844329 c 0,-1.986871 0,-3.973742 0,-5.960613 2.175363,6.7e-4 4.350725,0.0013 6.526088,0.002 0,0.94581 0,1.891619 0,2.837429 1.891619,0 3.783239,0 5.674858,0 0,-9.458098 0,-18.916195 0,-28.374293 2.175363,-1.26e-4 4.350725,-2.52e-4 6.526088,-3.78e-4 0,10.498614 0,20.997229 0,31.495843 -1.454508,1.229554 -2.909019,2.459106 -4.363529,3.688658 -3.333325,0 -6.666651,0 -9.999976,0 -0.727237,-0.614768 -1.454563,-1.229595 -2.181767,-1.844308 z" fill="#ffffff"/>
        <path d="m -21.316836,67.942723 -2.109122,-1.844329 0,-5.978379 c 2.061011,0 4.392437,0.01978 6.453448,0.01978 0,0.94581 0,1.891619 0,2.837429 2.269943,0 4.539887,0 6.80983,0 0,-2.459105 0,-4.918211 0,-7.377316 -3.196954,0 -6.393909,0 -9.590863,0 l -3.745055,-3.688659 0,-6.80983 0,-6.80983 3.745055,-3.688658 c 3.863156,0 7.726313,0 11.5894692,0 l 4.2511106,3.688658 c -0.00204,1.797039 -0.00472,3.594077 -0.00737,5.391115 -2.0807816,0 -4.1615632,0 -6.2423448,0 0,-0.756648 0,-1.513295 0,-2.269943 -2.269943,0 -4.539887,0 -6.80983,0 0,2.459105 0,4.918211 0,7.377316 2.990126,0 5.980253,0 8.9703792,0 1.3605964,1.204585 4.0817956,3.613749 4.0817956,3.613749 0,4.555246 0,9.110492 0,13.665738 l -2.0892845,1.858745 -2.0892901,1.858745 -5.5180792,0 -5.51808,0 z" fill="#ffffff"/>
      </g>
    </symbol>

    <!-- qdrant icon -->
    <symbol id="qdrant" viewBox="0 0 256 296">
      <defs>
        <linearGradient x1="81.5619048%" y1="44.8421053%" x2="-18.0857143%" y2="44.8421053%" id="linearGradient-1">
          <stop stop-color="#FF3364" offset="0%"></stop>
          <stop stop-color="#C91540" stop-opacity="0" offset="100%"></stop>
        </linearGradient>
      </defs>
      <g>
        <polygon fill="#24386C" points="201.31705 271.722427 195.422715 109.21267 184.747781 66.3682368 256 73.9112545 256 270.492509 212.474757 295.612626"></polygon>
        <polygon fill="#7589BE" points="255.995151 73.8998107 212.469908 99.037384 122.649634 79.3346471 17.5160008 122.140288 1.1370484e-14 73.8998107 63.9883137 36.9499053 127.996024 0 191.986277 36.9499053"></polygon>
        <polyline fill="#B2BFE8" points="0.00310340412 73.8998107 43.5283462 99.037384 68.7590217 174.073816 153.949405 242.236209 128.001067 295.599243 63.9933568 258.647398 0.00310340412 221.697492 0.00310340412 73.897871"></polyline>
        <polyline fill="#24386C" points="156.856906 202.807459 128.001067 245.347371 128.001067 295.603122 168.946605 271.978458 190.043934 240.475027"></polyline>
        <polygon fill="#7589BE" points="128.018523 195.107138 87.0555287 124.184656 95.8787005 100.678309 129.42068 84.4156955 168.946411 124.185819"></polygon>
        <polyline fill="#B2BFE8" points="87.0555287 124.178837 128.001067 147.803501 128.001067 195.091621 90.131778 196.720927 67.2247763 167.471344 87.0555287 124.178856"></polyline>
        <polygon fill="#24386C" points="128.001067 147.799621 168.946605 124.176897 196.813234 170.576668 163.090869 198.439418 128.001067 195.089293"></polygon>
        <path d="M168.946605,271.974579 L212.471848,295.601182 L212.471848,99.0393237 L170.226759,74.658205 L128.001067,50.2770864 L85.7559782,74.658205 L43.5302858,99.0393237 L43.5302858,196.581255 L85.7559782,220.962373 L128.001067,245.345432 L168.946605,221.699432 L168.946605,271.974579 Z M168.946605,171.443681 L128.001067,195.087742 L87.0555287,171.443681 L87.0555287,124.174957 L128.001067,100.530897 L168.946605,124.174957 L168.946605,171.443681" fill="#DC244C"></path>
        <polygon fill="url(#linearGradient-1)" points="128.018523 245.362888 128.018523 195.099379 87.2863443 171.657041 87.2863443 221.837146"></polygon>
      </g>
    </symbol>

    <!-- tesseract.js icon -->
    <symbol id="tesseract" viewBox="0 0 512 512">
    
      <path d="M128 96 L256 32 L384 96 L384 224 L256 288 L128 224 Z
               M256 32 L256 160 M384 96 L256 160 L128 96
               M128 224 L128 352 L256 416 L384 352 L384 224
               M128 352 L256 288 L384 352" 
            stroke="#222" stroke-width="40" fill="none" stroke-linecap="round" stroke-linejoin="round"/>
    </symbol>

    <!-- huggingface icon -->
    <symbol id="huggingface" viewBox="0 0 256 256">
      <path d="M230.721 172.7C230.183 170.673 229.313 168.75 228.146 167.008C228.396 166.091 228.587 165.159 228.714 164.217C229.543 158.241 227.471 152.77 223.567 148.537C221.452 146.225 219.185 144.698 216.784 143.761C218.36 137.018 219.157 130.117 219.161 123.193C219.161 120.03 218.982 116.932 218.682 113.88C218.526 112.356 218.337 110.836 218.115 109.32C217.428 104.847 216.408 100.431 215.064 96.11C214.183 93.2707 213.164 90.476 212.01 87.736C210.281 83.6782 208.262 79.75 205.969 75.982C204.465 73.475 202.827 71.0508 201.062 68.72C200.197 67.543 199.296 66.3938 198.358 65.274C195.58 61.898 192.561 58.7277 189.325 55.788C188.25 54.7997 187.145 53.8453 186.01 52.926C184.893 51.9943 183.751 51.0927 182.586 50.222C180.241 48.4766 177.818 46.8392 175.324 45.315C161.543 36.945 145.382 32.145 128.109 32.145C77.817 32.145 37.057 72.907 37.057 123.196C37.055 130.208 37.867 137.196 39.477 144.02C37.317 144.958 35.247 146.42 33.327 148.535C29.424 152.766 27.351 158.217 28.18 164.193C28.306 165.142 28.495 166.082 28.747 167.006C27.5811 168.749 26.7117 170.673 26.174 172.7C24.974 177.261 25.369 181.374 26.894 184.978C25.236 189.688 25.65 194.704 27.809 199.065C29.379 202.25 31.626 204.714 34.396 206.916C37.689 209.534 41.811 211.758 46.783 213.892C52.715 216.422 59.956 218.799 63.249 219.671C71.755 221.873 79.911 223.269 88.177 223.337C99.954 223.446 110.096 220.677 117.357 213.59C120.924 214.027 124.515 214.246 128.109 214.244C131.906 214.236 135.699 213.997 139.467 213.529C146.711 220.661 156.892 223.455 168.712 223.343C176.977 223.277 185.133 221.881 193.617 219.676C196.932 218.804 204.17 216.427 210.105 213.897C215.077 211.76 219.199 209.536 222.514 206.922C225.263 204.719 227.508 202.256 229.079 199.071C231.26 194.709 231.652 189.693 230.017 184.983C231.527 181.379 231.92 177.257 230.721 172.7Z" fill="white"/>
      <path d="M221.784 183.816C222.786 182.312 223.458 180.613 223.756 178.831C224.053 177.048 223.97 175.223 223.512 173.475C222.848 170.952 221.476 168.854 219.615 167.347C220.512 165.873 221.1 164.233 221.344 162.525C221.881 158.811 220.648 155.103 217.874 152.079C215.716 149.726 212.662 148.431 209.282 148.431C208.889 148.431 208.489 148.452 208.081 148.492C210.643 140.304 211.942 131.774 211.933 123.195C211.933 76.5231 174.097 38.6851 127.424 38.6851C80.75 38.6851 42.9099 76.5191 42.9099 123.195C42.9015 131.752 44.1936 140.261 46.742 148.43H46.6519C43.2719 148.43 40.219 149.724 38.06 152.077C35.287 155.098 34.0529 158.81 34.5899 162.523C34.8346 164.231 35.4231 165.872 36.3199 167.346C34.4579 168.852 33.086 170.95 32.422 173.473C31.9642 175.222 31.8817 177.047 32.1799 178.83C32.4781 180.612 33.1501 182.312 34.1519 183.816C33.9739 184.094 33.8099 184.381 33.6549 184.676C31.9849 187.847 31.877 191.43 33.352 194.767C35.588 199.824 41.1419 203.808 51.9289 208.085C58.6359 210.745 64.779 212.446 64.833 212.461C73.705 214.762 81.729 215.931 88.675 215.931C100.081 215.931 108.591 212.811 114.026 206.647C123.222 208.106 132.594 208.052 141.773 206.489C147.201 212.757 155.76 215.931 167.262 215.931C174.208 215.931 182.232 214.762 191.103 212.461C191.158 212.446 197.298 210.745 204.008 208.085C214.795 203.808 220.35 199.824 222.585 194.767C224.059 191.43 223.952 187.847 222.281 184.676C222.129 184.379 221.961 184.091 221.784 183.816Z" fill="#FF9D00"/>
      <path fill-rule="evenodd" clip-rule="evenodd" d="M203.21 123.685V123.194C203.21 81.34 169.292 47.411 127.435 47.411C85.5791 47.411 51.648 81.342 51.648 123.194V123.358C51.646 123.467 51.645 123.576 51.648 123.685C51.6529 123.848 51.6546 124.011 51.653 124.174L51.6581 124.534L51.661 124.663C51.661 124.723 51.6631 124.782 51.6651 124.842C51.6681 124.937 51.67 125.033 51.67 125.128L51.681 125.517L51.697 125.974L51.702 126.124L51.722 126.597V126.62C51.73 126.805 51.7401 126.989 51.7491 127.173L51.75 127.187C51.76 127.375 51.7701 127.564 51.7821 127.753C51.7921 127.927 51.802 128.101 51.815 128.275L51.8171 128.306C51.8258 128.455 51.8358 128.605 51.847 128.754L51.85 128.794L51.883 129.226L51.8861 129.254C51.8921 129.338 51.898 129.422 51.906 129.503C51.9658 130.224 52.0355 130.945 52.1151 131.664L52.12 131.709L52.181 132.238L52.2491 132.793L52.299 133.17L52.322 133.347C52.3753 133.755 52.433 134.162 52.495 134.568L52.4991 134.595L52.558 134.979C52.8435 136.808 53.1971 138.626 53.618 140.429L53.6231 140.451L53.655 140.586L53.746 140.971L53.802 140.904C56.002 138.274 59.158 136.824 62.689 136.824C65.519 136.824 68.4221 137.76 71.3321 139.605C73.2621 140.831 75.3961 143.002 77.5921 145.733C79.6241 142.911 82.4721 141.035 85.7301 140.523C86.3513 140.425 86.9792 140.376 87.6081 140.375C95.0441 140.375 99.523 146.828 101.215 152.633C102.051 154.594 106.08 163.526 112.156 169.568C121.392 178.795 123.703 188.316 119.132 198.511H119.148C119.459 198.546 119.772 198.578 120.087 198.607C120.274 198.625 120.46 198.643 120.648 198.659L120.714 198.665L121.127 198.7L121.507 198.73C121.869 198.758 122.232 198.784 122.596 198.807L122.885 198.824L123.114 198.838L123.256 198.846L123.703 198.869L123.825 198.874L124.294 198.895L124.816 198.915L125.235 198.927L125.305 198.929C125.394 198.933 125.483 198.936 125.572 198.936L125.668 198.939C126.258 198.953 126.847 198.96 127.437 198.959H128.063L128.51 198.954C128.62 198.949 128.729 198.949 128.84 198.949H129.014L129.165 198.945C129.224 198.943 129.283 198.941 129.343 198.941H129.522L129.873 198.932L130.401 198.914L130.982 198.888C131.15 198.882 131.316 198.873 131.482 198.865L131.661 198.854L131.927 198.84L132.083 198.831L132.201 198.823L132.738 198.788L133.274 198.749L133.761 198.71L134.103 198.681L134.479 198.647C135.107 198.591 135.733 198.525 136.359 198.45L136.786 198.399C132.287 188.247 134.616 178.767 143.813 169.577C149.876 163.519 153.905 154.587 154.745 152.625C156.438 146.821 160.914 140.368 168.352 140.368C168.981 140.368 169.61 140.418 170.231 140.516C173.486 141.028 176.334 142.904 178.369 145.726C180.566 142.996 182.699 140.823 184.63 139.597C187.539 137.753 190.445 136.817 193.272 136.817C196.388 136.817 199.212 137.947 201.345 140.02C201.384 139.851 201.422 139.682 201.459 139.512L201.568 139.006C201.607 138.821 201.646 138.636 201.683 138.451C201.749 138.124 201.815 137.797 201.878 137.467C201.944 137.125 202.007 136.781 202.067 136.437L202.098 136.251C202.117 136.141 202.135 136.031 202.156 135.92C202.19 135.748 202.218 135.576 202.246 135.402L202.257 135.336L202.328 134.883L202.398 134.424V134.42C202.449 134.081 202.497 133.742 202.553 133.403L202.564 133.319L202.627 132.841L202.678 132.433L202.768 131.629L202.803 131.306L202.812 131.218C202.831 131.044 202.849 130.87 202.865 130.696V130.682C202.878 130.544 202.892 130.405 202.904 130.266C202.975 129.478 203.035 128.686 203.083 127.891C203.092 127.761 203.099 127.63 203.107 127.499V127.493L203.133 127.002L203.139 126.892C203.155 126.56 203.169 126.228 203.18 125.896V125.884L203.185 125.754C203.19 125.645 203.194 125.535 203.194 125.425L203.196 125.381C203.2 125.278 203.204 125.172 203.204 125.067L203.207 124.977C203.21 124.872 203.213 124.768 203.213 124.663L203.215 124.574C203.218 124.441 203.221 124.307 203.221 124.174V123.685Z" fill="#FFD21E"/>
      <path fill-rule="evenodd" clip-rule="evenodd" d="M152.047 102.567C153.229 102.985 154.108 104.257 154.944 105.468C156.074 107.104 157.126 108.627 158.74 107.769C160.644 106.756 162.205 105.202 163.225 103.302C164.246 101.402 164.681 99.2427 164.475 97.096C164.321 95.4908 163.813 93.9398 162.987 92.5548C162.161 91.1697 161.038 89.985 159.7 89.0862C158.361 88.1874 156.839 87.5968 155.245 87.3569C153.65 87.117 152.022 87.2339 150.478 87.699C148.934 88.1639 147.513 88.9653 146.316 90.0455C145.119 91.1257 144.176 92.4578 143.556 93.946C142.936 95.4342 142.653 97.0415 142.728 98.652C142.804 100.263 143.235 101.836 143.992 103.26C144.74 104.667 146.4 104.003 148.152 103.302C149.525 102.753 150.956 102.181 152.047 102.567ZM100.672 102.567C99.49 102.985 98.611 104.258 97.775 105.468C96.645 107.105 95.592 108.627 93.979 107.769C91.5845 106.501 89.7482 104.386 88.8278 101.838C87.9075 99.2895 87.9692 96.4896 89.0008 93.9841C90.0324 91.4786 91.9601 89.4471 94.408 88.2855C96.856 87.1239 99.6488 86.9156 102.242 87.701C104.307 88.3228 106.141 89.5427 107.513 91.2065C108.885 92.8704 109.732 94.9035 109.949 97.049C110.165 99.1945 109.74 101.356 108.728 103.26C107.979 104.667 106.319 104.003 104.567 103.303C103.193 102.753 101.764 102.181 100.672 102.567ZM144.099 149.318C152.242 142.903 155.233 132.429 155.233 125.977C155.233 120.877 151.802 122.482 146.309 125.202L145.999 125.355C140.957 127.852 134.245 131.177 126.877 131.177C119.508 131.177 112.796 127.852 107.755 125.354C102.084 122.545 98.527 120.783 98.527 125.978C98.527 132.634 101.709 143.563 110.443 149.912C111.596 147.573 113.219 145.497 115.211 143.813C117.202 142.129 119.52 140.874 122.018 140.126C122.89 139.866 123.788 141.367 124.707 142.904C125.594 144.386 126.501 145.902 127.423 145.902C128.406 145.902 129.371 144.408 130.314 142.95C131.299 141.425 132.26 139.94 133.189 140.237C137.864 141.738 141.775 144.993 144.099 149.318Z" fill="#32343D"/>
      <path d="M144.097 149.317C139.856 152.659 134.219 154.9 126.878 154.9C119.981 154.9 114.587 152.922 110.443 149.911C111.596 147.572 113.219 145.495 115.211 143.812C117.202 142.128 119.52 140.873 122.018 140.125C123.73 139.614 125.545 145.901 127.423 145.901C129.433 145.901 131.37 139.655 133.189 140.236C137.863 141.738 141.773 144.993 144.097 149.317Z" fill="#FF323D"/>
      <path fill-rule="evenodd" clip-rule="evenodd" d="M81.2 111.64C80.2312 112.288 79.1173 112.687 77.9572 112.801C76.7971 112.916 75.6267 112.742 74.55 112.295C73.6893 111.94 72.9072 111.418 72.2488 110.759C71.5903 110.101 71.0684 109.319 70.713 108.458C70.267 107.381 70.0935 106.211 70.2082 105.051C70.3228 103.891 70.7219 102.777 71.37 101.808C72.1488 100.642 73.2558 99.7333 74.5512 99.1967C75.8466 98.6601 77.272 98.5197 78.6471 98.7935C80.0223 99.0672 81.2853 99.7427 82.2764 100.734C83.2675 101.726 83.9422 102.99 84.215 104.365C84.4883 105.74 84.3477 107.165 83.8113 108.46C83.2748 109.755 82.3654 110.861 81.2 111.64ZM182.613 111.64C181.644 112.288 180.53 112.687 179.37 112.801C178.209 112.916 177.039 112.742 175.962 112.295C175.101 111.939 174.319 111.418 173.661 110.759C173.003 110.101 172.481 109.319 172.125 108.458C171.68 107.381 171.507 106.211 171.621 105.051C171.736 103.891 172.135 102.777 172.782 101.808C173.364 100.936 174.133 100.205 175.032 99.6658C175.931 99.1269 176.938 98.7942 177.981 98.6917C179.025 98.5891 180.078 98.7193 181.064 99.0728C182.051 99.4264 182.947 99.9944 183.688 100.736C184.68 101.727 185.355 102.99 185.628 104.365C185.902 105.74 185.761 107.165 185.224 108.46C184.687 109.755 183.779 110.861 182.613 111.64Z" fill="#FFAD03"/>
    </symbol>
  </defs>
</svg>