<svg xmlns="http://www.w3.org/2000/svg">
  <defs>
    <!-- astro icon -->
    <symbol id="astro" viewBox="0 0 85 107">
      <path d="M27.5894 91.1365C22.7555 86.7178 21.3444 77.4335 23.3583 70.7072C26.8503 74.948 31.6888 76.2914 36.7005 77.0497C44.4375 78.2199 52.0359 77.7822 59.2232 74.2459C60.0454 73.841 60.8052 73.3027 61.7036 72.7574C62.378 74.714 62.5535 76.6892 62.318 78.6996C61.7452 83.5957 59.3086 87.3778 55.4332 90.2448C53.8835 91.3916 52.2437 92.4167 50.6432 93.4979C45.7262 96.8213 44.3959 100.718 46.2435 106.386C46.2874 106.525 46.3267 106.663 46.426 107C43.9155 105.876 42.0817 104.24 40.6845 102.089C39.2087 99.8193 38.5066 97.3081 38.4696 94.5909C38.4511 93.2686 38.4511 91.9345 38.2733 90.6309C37.8391 87.4527 36.3471 86.0297 33.5364 85.9478C30.6518 85.8636 28.37 87.6469 27.7649 90.4554C27.7187 90.6707 27.6517 90.8837 27.5847 91.1341L27.5894 91.1365Z" fill="#F041FF"/>
      <path d="M0 69.5866C0 69.5866 14.3139 62.6137 28.6678 62.6137L39.4901 29.1204C39.8953 27.5007 41.0783 26.3999 42.4139 26.3999C43.7495 26.3999 44.9325 27.5007 45.3377 29.1204L56.1601 62.6137C73.1601 62.6137 84.8278 69.5866 84.8278 69.5866C84.8278 69.5866 60.5145 3.35233 60.467 3.21944C59.7692 1.2612 58.5911 0 57.0029 0H27.8274C26.2392 0 25.1087 1.2612 24.3634 3.21944C24.3108 3.34983 0 69.5866 0 69.5866Z" fill="currentColor"/>
    </symbol>

    <!-- javascript icon -->
    <symbol id="javascript" viewBox="0 0 630 630">
      <rect width="630" height="630" fill="#f7df1e"/>
      <path fill="black" d="m423.2 492.19c12.69 20.72 29.2 35.95 58.4 35.95 24.53 0 40.2-12.26 40.2-29.2 0-20.3-16.1-27.49-43.1-39.3l-14.8-6.35c-42.72-18.2-71.1-41-71.1-89.2 0-44.4 33.83-78.2 86.7-78.2 37.64 0 64.7 13.1 84.2 47.4l-46.1 29.6c-10.15-18.2-21.1-25.37-38.1-25.37-17.34 0-28.33 11-28.33 25.37 0 17.76 11 24.95 36.4 35.95l14.8 6.34c50.3 21.57 78.7 43.56 78.7 93 0 53.3-41.87 82.5-98.1 82.5-54.98 0-90.5-26.2-107.88-60.54zm-209.13 5.13c9.3 16.5 17.76 30.45 38.1 30.45 19.45 0 31.72-7.61 31.72-37.2v-201.3h59.2v202.1c0 61.3-35.94 89.2-88.4 89.2-47.4 0-74.85-24.53-88.81-54.075z"/>
    </symbol>

    <!-- typescript icon -->
    <symbol id="typescript" fill="none" viewBox="0 0 512 512">
      <rect fill="#3178c6" height="512" rx="50" width="512"/>
      <rect fill="#3178c6" height="512" rx="50" width="512"/>
      <path clip-rule="evenodd" fill="#fff" fill-rule="evenodd" d="m316.939 407.424v50.061c8.138 4.172 17.763 7.3 28.875 9.386s22.823 3.129 35.135 3.129c11.999 0 23.397-1.147 34.196-3.442 10.799-2.294 20.268-6.075 28.406-11.342 8.138-5.266 14.581-12.15 19.328-20.65s7.121-19.007 7.121-31.522c0-9.074-1.356-17.026-4.069-23.857s-6.625-12.906-11.738-18.225c-5.112-5.319-11.242-10.091-18.389-14.315s-15.207-8.213-24.18-11.967c-6.573-2.712-12.468-5.345-17.685-7.9-5.217-2.556-9.651-5.163-13.303-7.822-3.652-2.66-6.469-5.476-8.451-8.448-1.982-2.973-2.974-6.336-2.974-10.091 0-3.441.887-6.544 2.661-9.308s4.278-5.136 7.512-7.118c3.235-1.981 7.199-3.52 11.894-4.615 4.696-1.095 9.912-1.642 15.651-1.642 4.173 0 8.581.313 13.224.938 4.643.626 9.312 1.591 14.008 2.894 4.695 1.304 9.259 2.947 13.694 4.928 4.434 1.982 8.529 4.276 12.285 6.884v-46.776c-7.616-2.92-15.937-5.084-24.962-6.492s-19.381-2.112-31.066-2.112c-11.895 0-23.163 1.278-33.805 3.833s-20.006 6.544-28.093 11.967c-8.086 5.424-14.476 12.333-19.171 20.729-4.695 8.395-7.043 18.433-7.043 30.114 0 14.914 4.304 27.638 12.912 38.172 8.607 10.533 21.675 19.45 39.204 26.751 6.886 2.816 13.303 5.579 19.25 8.291s11.086 5.528 15.415 8.448c4.33 2.92 7.747 6.101 10.252 9.543 2.504 3.441 3.756 7.352 3.756 11.733 0 3.233-.783 6.231-2.348 8.995s-3.939 5.162-7.121 7.196-7.147 3.624-11.894 4.771c-4.748 1.148-10.303 1.721-16.668 1.721-10.851 0-21.597-1.903-32.24-5.71-10.642-3.806-20.502-9.516-29.579-17.13zm-84.159-123.342h64.22v-41.082h-179v41.082h63.906v182.918h50.874z"/>
    </symbol>

    <!-- tailwind icon -->
    <symbol id="tailwind" viewBox="0 0 47 40" fill="none">
      <path fill="#6366f1" d="M23.5 6.5C17.5 6.5 13.75 9.5 12.25 15.5C14.5 12.5 17.125 11.375 20.125 12.125C21.8367 12.5529 23.0601 13.7947 24.4142 15.1692C26.6202 17.4084 29.1734 20 34.75 20C40.75 20 44.5 17 46 11C43.75 14 41.125 15.125 38.125 14.375C36.4133 13.9471 35.1899 12.7053 33.8357 11.3308C31.6297 9.09158 29.0766 6.5 23.5 6.5ZM12.25 20C6.25 20 2.5 23 1 29C3.25 26 5.875 24.875 8.875 25.625C10.5867 26.0529 11.8101 27.2947 13.1642 28.6693C15.3702 30.9084 17.9234 33.5 23.5 33.5C29.5 33.5 33.25 30.5 34.75 24.5C32.5 27.5 29.875 28.625 26.875 27.875C25.1633 27.4471 23.9399 26.2053 22.5858 24.8307C20.3798 22.5916 17.8266 20 12.25 20Z"/>
    </symbol>

    <!-- svelte icon -->
    <symbol id="svelte" viewBox="0 0 98.1 118">
      <path fill="#FF3E00" d="M91.8,15.6C80.9-0.1,59.2-4.7,43.6,5.2L16.1,22.8C8.6,27.5,3.4,35.2,1.9,43.9c-1.3,7.3-0.2,14.8,3.3,21.3  c-2.4,3.6-4,7.6-4.7,11.8c-1.6,8.9,0.5,18.1,5.7,25.4c11,15.7,32.6,20.3,48.2,10.4l27.5-17.5c7.5-4.7,12.7-12.4,14.2-21.1  c1.3-7.3,0.2-14.8-3.3-21.3c2.4-3.6,4-7.6,4.7-11.8C99.2,32.1,97.1,22.9,91.8,15.6"/>
      <path fill="#FFFFFF" d="M40.9,103.9c-8.9,2.3-18.2-1.2-23.4-8.7c-3.2-4.4-4.4-9.9-3.5-15.3c0.2-0.9,0.4-1.7,0.6-2.6l0.5-1.6l1.4,1  c3.3,2.4,6.9,4.2,10.8,5.4l1,0.3l-0.1,1c-0.1,1.4,0.3,2.9,1.1,4.1c1.6,2.3,4.4,3.4,7.1,2.7c0.6-0.2,1.2-0.4,1.7-0.7L65.5,72  c1.4-0.9,2.3-2.2,2.6-3.8c0.3-1.6-0.1-3.3-1-4.6c-1.6-2.3-4.4-3.3-7.1-2.6c-0.6,0.2-1.2,0.4-1.7,0.7l-10.5,6.7  c-1.7,1.1-3.6,1.9-5.6,2.4c-8.9,2.3-18.2-1.2-23.4-8.7c-3.1-4.4-4.4-9.9-3.4-15.3c0.9-5.2,4.1-9.9,8.6-12.7l27.5-17.5  c1.7-1.1,3.6-1.9,5.6-2.5c8.9-2.3,18.2,1.2,23.4,8.7c3.2,4.4,4.4,9.9,3.5,15.3c-0.9,5.2-4.1,9.9-8.6,12.7l-27.5,17.5C44.8,102.5,42.9,103.3,40.9,103.9"/>
    </symbol>

    <!-- mistral icon -->
    <symbol id="mistral" viewBox="0 0 150 150">
      <rect fill="gold" x="22.54" y="23.64" width="20.98" height="24.4"/>
      <rect fill="gold" x="106.47" y="23.64" width="20.98" height="24.4"/>
      <rect fill="#ffaf00" x="22.54" y="44.62" width="41.97" height="22.35"/>
      <rect fill="#ffaf00" x="85.49" y="44.62" width="41.97" height="22.35"/>
      <rect fill="#fa500f" x="22.54" y="81.26" width="20.98" height="27.36"/>
      <rect fill="#fa500f" x="64.5" y="81.26" width="20.98" height="26.31"/>
      <rect fill="#fa500f" x="106.47" y="81.26" width="20.98" height="27.36"/>
      <path fill="#e10500" d="M1.56,107.57h62.95v20.98H1.56v-20.98Zm83.93,0h62.95v20.98h-62.95v-20.98Z"/>
      <path fill="#ff8205" d="M22.54,65.61H127.45v20.98H22.54v-20.98Z"/>
    </symbol>

    <!-- pdf-js icon -->
    <symbol id="pdf-js" viewBox="0 0 64 64">
      <path d="M 4.8364028,0.4891005 32.096378,4.5726641 59.163597,0.4891005 54.680408,57.805097 32.096378,63.510899 8.3116209,57.805097 z" fill="#e5e7e8" stroke="#cccccc"/>
      <path d="M 32.096378,10.745857 53.925414,6.8301117 51.016574,53.81906 32.096378,58.517955 z" fill="#ffffff"/>
      <rect width="34.027256" height="19.136194" x="3.7557135" y="22.431904" fill="#ff2600"/>
      <rect width="23.480518" height="19.136194" x="36.763767" y="22.431904" fill="#ff501a"/>
      <g transform="matrix(0.42778543,0,0,0.42778543,58.617711,9.6737064)">
        <path d="m -120.53125,34.59375 0,35.1875 6.53125,0 0,-5.9375 0,-5.96875 8.875,0 4.15625,-3.71875 0,-7.71875 0,-7.71875 -4.21875,-4.125 -15.34375,0 z m 6.53125,6.8125 6.21875,0 0,10.21875 -6.21875,0 0,-10.21875 z" fill="#ffffff"/>
        <path d="m -98.125,34.59375 0,35.1875 16.125,0 3.75,-3.625 0,-27.96875 -3.96875,-3.59375 -15.90625,0 z m 6.8125,6.8125 6.8125,0 0,21.5625 -6.8125,0 0,-21.5625 z" fill="#ffffff"/>
        <path d="m -74.856072,34.602929 c 5.485697,0 10.971394,0 16.457091,0 0,2.269943 0,4.539887 0,6.80983 -3.404915,0 -6.809831,0 -10.214746,0 0,2.472069 0,4.944138 0,7.416206 2.93201,0.110496 5.864021,-0.110494 8.796031,0 l 0,3.366025 0,3.375914 c -2.93201,0.110495 -5.864021,-0.110495 -8.796031,0 l 0,7.146446 0,7.069702 c -2.080782,0 -4.161563,0 -6.242345,0 0,-11.728041 0,-23.456082 0,-35.184123 z" fill="#ffffff"/>
        <path d="m -42.8813,67.942723 -2.181762,-1.844329 c 0,-1.986871 0,-3.973742 0,-5.960613 2.175363,6.7e-4 4.350725,0.0013 6.526088,0.002 0,0.94581 0,1.891619 0,2.837429 1.891619,0 3.783239,0 5.674858,0 0,-9.458098 0,-18.916195 0,-28.374293 2.175363,-1.26e-4 4.350725,-2.52e-4 6.526088,-3.78e-4 0,10.498614 0,20.997229 0,31.495843 -1.454508,1.229554 -2.909019,2.459106 -4.363529,3.688658 -3.333325,0 -6.666651,0 -9.999976,0 -0.727237,-0.614768 -1.454563,-1.229595 -2.181767,-1.844308 z" fill="#ffffff"/>
        <path d="m -21.316836,67.942723 -2.109122,-1.844329 0,-5.978379 c 2.061011,0 4.392437,0.01978 6.453448,0.01978 0,0.94581 0,1.891619 0,2.837429 2.269943,0 4.539887,0 6.80983,0 0,-2.459105 0,-4.918211 0,-7.377316 -3.196954,0 -6.393909,0 -9.590863,0 l -3.745055,-3.688659 0,-6.80983 0,-6.80983 3.745055,-3.688658 c 3.863156,0 7.726313,0 11.5894692,0 l 4.2511106,3.688658 c -0.00204,1.797039 -0.00472,3.594077 -0.00737,5.391115 -2.0807816,0 -4.1615632,0 -6.2423448,0 0,-0.756648 0,-1.513295 0,-2.269943 -2.269943,0 -4.539887,0 -6.80983,0 0,2.459105 0,4.918211 0,7.377316 2.990126,0 5.980253,0 8.9703792,0 1.3605964,1.204585 4.0817956,3.613749 4.0817956,3.613749 0,4.555246 0,9.110492 0,13.665738 l -2.0892845,1.858745 -2.0892901,1.858745 -5.5180792,0 -5.51808,0 z" fill="#ffffff"/>
      </g>
    </symbol>

    <!-- qdrant icon -->
    <symbol id="qdrant" viewBox="0 0 256 296">
      <defs>
        <linearGradient x1="81.5619048%" y1="44.8421053%" x2="-18.0857143%" y2="44.8421053%" id="linearGradient-1">
          <stop stop-color="#FF3364" offset="0%"></stop>
          <stop stop-color="#C91540" stop-opacity="0" offset="100%"></stop>
        </linearGradient>
      </defs>
      <g>
        <polygon fill="#24386C" points="201.31705 271.722427 195.422715 109.21267 184.747781 66.3682368 256 73.9112545 256 270.492509 212.474757 295.612626"></polygon>
        <polygon fill="#7589BE" points="255.995151 73.8998107 212.469908 99.037384 122.649634 79.3346471 17.5160008 122.140288 1.1370484e-14 73.8998107 63.9883137 36.9499053 127.996024 0 191.986277 36.9499053"></polygon>
        <polyline fill="#B2BFE8" points="0.00310340412 73.8998107 43.5283462 99.037384 68.7590217 174.073816 153.949405 242.236209 128.001067 295.599243 63.9933568 258.647398 0.00310340412 221.697492 0.00310340412 73.897871"></polyline>
        <polyline fill="#24386C" points="156.856906 202.807459 128.001067 245.347371 128.001067 295.603122 168.946605 271.978458 190.043934 240.475027"></polyline>
        <polygon fill="#7589BE" points="128.018523 195.107138 87.0555287 124.184656 95.8787005 100.678309 129.42068 84.4156955 168.946411 124.185819"></polygon>
        <polyline fill="#B2BFE8" points="87.0555287 124.178837 128.001067 147.803501 128.001067 195.091621 90.131778 196.720927 67.2247763 167.471344 87.0555287 124.178856"></polyline>
        <polygon fill="#24386C" points="128.001067 147.799621 168.946605 124.176897 196.813234 170.576668 163.090869 198.439418 128.001067 195.089293"></polygon>
        <path d="M168.946605,271.974579 L212.471848,295.601182 L212.471848,99.0393237 L170.226759,74.658205 L128.001067,50.2770864 L85.7559782,74.658205 L43.5302858,99.0393237 L43.5302858,196.581255 L85.7559782,220.962373 L128.001067,245.345432 L168.946605,221.699432 L168.946605,271.974579 Z M168.946605,171.443681 L128.001067,195.087742 L87.0555287,171.443681 L87.0555287,124.174957 L128.001067,100.530897 L168.946605,124.174957 L168.946605,171.443681" fill="#DC244C"></path>
        <polygon fill="url(#linearGradient-1)" points="128.018523 245.362888 128.018523 195.099379 87.2863443 171.657041 87.2863443 221.837146"></polygon>
      </g>
    </symbol>
  </defs>
</svg>